<?xml version="1.0" encoding="UTF-8"?>
<svg xmlns="http://www.w3.org/2000/svg" xmlns:xlink="http://www.w3.org/1999/xlink" width="1920px" height="1080px" viewBox="0 0 1920 1080" version="1.1">
<g id="surface1">
<path style=" stroke:none;fill-rule:nonzero;fill:rgb(3.529412%,3.137255%,7.843138%);fill-opacity:1;" d="M 456 355.949219 L 456 363.9375 L 167.167969 363.9375 C 74.847656 363.9375 0 420.636719 0 490.578125 L 0 954.164062 C 0 1024.105469 74.84375 1080.804688 167.164062 1080.808594 L 1751.742188 1080.808594 C 1844.066406 1080.808594 1918.910156 1024.109375 1918.910156 954.164062 L 1918.910156 490.578125 C 1918.910156 420.632812 1844.066406 363.933594 1751.742188 363.933594 L 661.597656 363.933594 L 661.597656 355.945312 Z M 456 355.949219 "/>
<path style=" stroke:none;fill-rule:nonzero;fill:rgb(100%,100%,100%);fill-opacity:1;" d="M 168.34375 390.890625 L 1750.578125 390.890625 C 1819.464844 390.847656 1875.355469 433.113281 1875.417969 485.300781 L 1875.417969 951.289062 C 1875.464844 1003.484375 1819.652344 1045.828125 1750.753906 1045.867188 L 168.34375 1045.867188 C 99.441406 1045.90625 43.546875 1003.621094 43.496094 951.421875 L 43.496094 894.777344 C 61.785156 900.429688 82.585938 898.8125 98.980469 890.464844 C 115.371094 882.117188 125.199219 868.136719 125.199219 853.171875 L 125.199219 587.582031 C 125.203125 572.617188 115.371094 558.636719 98.980469 550.289062 C 82.585938 541.941406 61.785156 540.324219 43.496094 545.976562 L 43.496094 485.46875 C 43.433594 433.28125 99.230469 390.9375 168.117188 390.890625 Z M 168.34375 390.890625 "/>
<path style=" stroke:none;fill-rule:nonzero;fill:rgb(94.117647%,94.117647%,94.117647%);fill-opacity:1;" d="M 1193.824219 759.613281 L 728.160156 759.613281 C 711.179688 759.597656 697.417969 749.175781 697.398438 736.308594 L 697.398438 724.714844 C 697.417969 711.847656 711.179688 701.425781 728.160156 701.410156 L 1193.824219 701.410156 C 1210.804688 701.425781 1224.566406 711.847656 1224.589844 724.714844 L 1224.589844 736.316406 C 1224.566406 749.179688 1210.804688 759.605469 1193.824219 759.621094 Z M 1193.824219 759.613281 "/>
<path style=" stroke:none;fill-rule:nonzero;fill:rgb(24.705882%,23.921569%,33.725491%);fill-opacity:1;" d="M 1192.285156 759.613281 L 726.621094 759.613281 C 708.789062 759.597656 694.339844 748.652344 694.320312 735.144531 L 694.320312 723.542969 C 694.339844 710.035156 708.789062 699.089844 726.621094 699.074219 L 1192.285156 699.074219 C 1210.117188 699.089844 1224.566406 710.035156 1224.589844 723.542969 L 1224.589844 735.144531 C 1224.566406 748.652344 1210.117188 759.597656 1192.285156 759.613281 Z M 726.621094 703.734375 C 712.179688 703.742188 700.472656 712.609375 700.460938 723.550781 L 700.460938 735.152344 C 700.472656 746.09375 712.179688 754.960938 726.621094 754.96875 L 1192.285156 754.96875 C 1206.730469 754.960938 1218.4375 746.09375 1218.445312 735.152344 L 1218.445312 723.550781 C 1218.4375 712.609375 1206.730469 703.742188 1192.285156 703.734375 Z M 726.621094 703.734375 "/>
<path style=" stroke:none;fill-rule:nonzero;fill:rgb(94.117647%,94.117647%,94.117647%);fill-opacity:1;" d="M 1192.285156 848.738281 L 726.621094 848.738281 C 709.640625 848.722656 695.878906 838.296875 695.859375 825.429688 L 695.859375 813.828125 C 695.878906 800.960938 709.640625 790.535156 726.621094 790.523438 L 1192.285156 790.523438 C 1209.269531 790.535156 1223.03125 800.960938 1223.050781 813.828125 L 1223.050781 825.425781 C 1223.03125 838.292969 1209.269531 848.722656 1192.285156 848.738281 Z M 1192.285156 848.738281 "/>
<path style=" stroke:none;fill-rule:nonzero;fill:rgb(24.705882%,23.921569%,33.725491%);fill-opacity:1;" d="M 1192.285156 849.902344 L 726.621094 849.902344 C 708.789062 849.886719 694.339844 838.941406 694.320312 825.433594 L 694.320312 813.832031 C 694.339844 800.324219 708.789062 789.378906 726.621094 789.363281 L 1192.285156 789.363281 C 1210.117188 789.378906 1224.566406 800.324219 1224.589844 813.832031 L 1224.589844 825.433594 C 1224.566406 838.941406 1210.117188 849.886719 1192.285156 849.902344 Z M 726.621094 794.023438 C 712.179688 794.03125 700.472656 802.898438 700.460938 813.839844 L 700.460938 825.441406 C 700.472656 836.382812 712.179688 845.25 726.621094 845.257812 L 1192.285156 845.257812 C 1206.730469 845.25 1218.4375 836.382812 1218.445312 825.441406 L 1218.445312 813.839844 C 1218.4375 802.898438 1206.730469 794.03125 1192.285156 794.023438 Z M 726.621094 794.023438 "/>
<path style=" stroke:none;fill-rule:nonzero;fill:rgb(42.352942%,38.82353%,100%);fill-opacity:1;" d="M 1068.457031 937.863281 L 847.378906 937.863281 C 830.398438 937.847656 816.636719 927.421875 816.617188 914.558594 L 816.617188 902.957031 C 816.636719 890.09375 830.398438 879.667969 847.378906 879.652344 L 1068.457031 879.652344 C 1085.4375 879.667969 1099.199219 890.09375 1099.21875 902.957031 L 1099.21875 914.558594 C 1099.199219 927.421875 1085.4375 937.847656 1068.457031 937.863281 Z M 1068.457031 937.863281 "/>
<path style=" stroke:none;fill-rule:nonzero;fill:rgb(24.705882%,23.921569%,33.725491%);fill-opacity:1;" d="M 1069.996094 940.195312 L 848.917969 940.195312 C 831.085938 940.175781 816.640625 929.230469 816.621094 915.722656 L 816.621094 904.121094 C 816.644531 890.613281 831.09375 879.667969 848.921875 879.652344 L 1070 879.652344 C 1087.832031 879.664062 1102.28125 890.613281 1102.300781 904.121094 L 1102.300781 915.722656 C 1102.28125 929.230469 1087.828125 940.179688 1069.996094 940.195312 Z M 848.917969 884.3125 C 834.476562 884.320312 822.769531 893.1875 822.757812 904.132812 L 822.757812 915.730469 C 822.769531 926.671875 834.476562 935.542969 848.917969 935.550781 L 1069.996094 935.550781 C 1084.4375 935.542969 1096.144531 926.671875 1096.15625 915.730469 L 1096.15625 904.132812 C 1096.144531 893.1875 1084.4375 884.320312 1069.996094 884.3125 Z M 848.917969 884.3125 "/>
<path style=" stroke:none;fill-rule:nonzero;fill:rgb(92.941177%,61.56863%,62.7451%);fill-opacity:1;" d="M 1482.003906 524.234375 L 1458.722656 541.871094 L 1426.574219 554.46875 L 1429.902344 576.300781 L 1490.859375 571.261719 L 1498.621094 559.507812 L 1496.402344 549.429688 L 1500.835938 533.472656 Z M 1482.003906 524.234375 "/>
<path style=" stroke:none;fill-rule:nonzero;fill:rgb(18.431373%,18.039216%,25.490198%);fill-opacity:1;" d="M 1434.332031 567.902344 L 1432.429688 549.375 L 1366.714844 572.941406 C 1366.714844 572.941406 1361.625 583.851562 1377.472656 585.539062 C 1393.320312 587.226562 1498.628906 587.21875 1498.628906 583.019531 C 1498.628906 578.816406 1501.507812 557.320312 1501.507812 557.320312 L 1437.667969 571.261719 L 1434.34375 567.902344 Z M 1434.332031 567.902344 "/>
<path style=" stroke:none;fill-rule:nonzero;fill:rgb(92.941177%,61.56863%,62.7451%);fill-opacity:1;" d="M 1565.730469 475.25 L 1582.566406 496.679688 L 1590.777344 523.382812 L 1619.53125 526.3125 L 1628.082031 480.304688 L 1614.945312 471.714844 L 1601.503906 470.863281 L 1582.179688 463.683594 Z M 1565.730469 475.25 "/>
<path style=" stroke:none;fill-rule:nonzero;fill:rgb(18.431373%,18.039216%,25.490198%);fill-opacity:1;" d="M 1609.875 521 L 1585.703125 517.839844 L 1599.691406 571.894531 C 1599.691406 571.894531 1612.410156 578.316406 1618.453125 567.089844 C 1624.496094 555.867188 1650.40625 478.546875 1645.03125 477.503906 C 1639.660156 476.464844 1612.871094 469.070312 1612.871094 469.070312 L 1615 519.382812 Z M 1609.875 521 "/>
<path style=" stroke:none;fill-rule:nonzero;fill:rgb(92.941177%,61.56863%,62.7451%);fill-opacity:1;" d="M 1639.261719 74.21875 L 1642.085938 125.574219 L 1596.90625 126.417969 L 1596.90625 82.234375 Z M 1639.261719 74.21875 "/>
<path style=" stroke:none;fill-rule:nonzero;fill:rgb(18.431373%,18.039216%,25.490198%);fill-opacity:1;" d="M 1728.761719 286.367188 C 1728.761719 286.367188 1753.210938 334.355469 1735.429688 353.71875 C 1717.648438 373.078125 1634.304688 384.027344 1634.304688 384.027344 L 1599.855469 408.441406 L 1508.742188 541.453125 L 1455.402344 532.195312 L 1530.96875 395.8125 C 1530.96875 395.8125 1575.421875 341.085938 1592.089844 333.515625 C 1608.757812 325.945312 1639.78125 297.488281 1639.78125 297.488281 Z M 1728.761719 286.367188 "/>
<path style=" stroke:none;fill-rule:nonzero;fill:rgb(18.431373%,18.039216%,25.490198%);fill-opacity:1;" d="M 1577.628906 290.578125 L 1543.398438 308.945312 C 1543.398438 308.945312 1422.054688 333.511719 1460.945312 390.761719 C 1499.839844 448.011719 1557.625 489.261719 1557.625 489.261719 L 1608.746094 467.371094 L 1526.511719 379.816406 L 1670.976562 313.3125 L 1577.628906 290.582031 Z M 1577.628906 290.578125 "/>
<path style=" stroke:none;fill-rule:nonzero;fill:rgb(92.941177%,61.56863%,62.7451%);fill-opacity:1;" d="M 1266.488281 220.769531 C 1250.40625 223.222656 1239.03125 231.5 1241.09375 239.253906 C 1243.15625 247.007812 1257.863281 251.304688 1273.957031 248.851562 C 1280.402344 247.9375 1286.464844 245.867188 1291.636719 242.816406 L 1359.621094 231.773438 L 1353.789062 211.410156 L 1285.871094 221.144531 C 1279.539062 219.851562 1272.894531 219.722656 1266.488281 220.769531 Z M 1266.488281 220.769531 "/>
<path style=" stroke:none;fill-rule:nonzero;fill:rgb(92.941177%,61.56863%,62.7451%);fill-opacity:1;" d="M 1523.199219 352.3125 C 1511.441406 360.980469 1507.820312 372.605469 1515.105469 378.273438 C 1522.390625 383.945312 1537.824219 381.503906 1549.585938 372.832031 C 1554.34375 369.414062 1557.957031 365.183594 1560.113281 360.492188 L 1609.316406 323.277344 L 1589.839844 308.574219 L 1539.769531 344.660156 C 1533.519531 346.171875 1527.84375 348.796875 1523.207031 352.3125 Z M 1523.199219 352.3125 "/>
<path style=" stroke:none;fill-rule:nonzero;fill:rgb(90.196079%,90.196079%,90.196079%);fill-opacity:1;" d="M 1591.523438 107.46875 L 1660.671875 107.46875 L 1711.535156 133.566406 L 1707.089844 236.273438 C 1707.089844 236.273438 1697.796875 262.066406 1729.316406 285.945312 C 1748.207031 300.257812 1741.539062 308.671875 1741.539062 308.671875 L 1629.300781 315.398438 L 1562.070312 300.671875 L 1586.519531 254.378906 L 1582.074219 240.066406 C 1582.074219 240.066406 1536.511719 215.652344 1544.292969 190.394531 C 1552.070312 165.140625 1562.070312 112.941406 1562.070312 112.941406 Z M 1591.523438 107.46875 "/>
<path style=" stroke:none;fill-rule:nonzero;fill:rgb(90.196079%,90.196079%,90.196079%);fill-opacity:1;" d="M 1639.863281 258.589844 L 1689.867188 133.992188 C 1689.867188 133.992188 1715.429688 127.265625 1726.539062 144.09375 C 1737.652344 160.921875 1723.675781 225.335938 1723.675781 225.335938 L 1665.421875 298.15625 L 1572.078125 352.035156 L 1548.738281 332.671875 Z M 1639.863281 258.589844 "/>
<path style=" stroke:none;fill-rule:nonzero;fill:rgb(90.196079%,90.196079%,90.196079%);fill-opacity:1;" d="M 1428.828125 194.328125 L 1562.96875 112.886719 C 1562.96875 112.886719 1589.082031 118.261719 1585.703125 136.914062 C 1582.324219 155.5625 1522.785156 202.730469 1522.785156 202.730469 L 1420.429688 237.914062 L 1303.230469 242.457031 L 1298.402344 216.496094 L 1428.828125 194.332031 Z M 1428.828125 194.328125 "/>
<path style=" stroke:none;fill-rule:nonzero;fill:rgb(92.941177%,61.56863%,62.7451%);fill-opacity:1;" d="M 1653.75 62.855469 C 1653.75 43.328125 1632.855469 27.496094 1607.078125 27.496094 C 1581.300781 27.496094 1560.40625 43.328125 1560.40625 62.855469 C 1560.40625 82.382812 1581.300781 98.210938 1607.078125 98.210938 C 1632.855469 98.210938 1653.75 82.382812 1653.75 62.855469 Z M 1653.75 62.855469 "/>
<path style=" stroke:none;fill-rule:nonzero;fill:rgb(18.431373%,18.039216%,25.490198%);fill-opacity:1;" d="M 1631.003906 3.65625 C 1631.003906 3.65625 1649.722656 -6.578125 1666.34375 15.476562 C 1677.703125 30.535156 1683.730469 59.191406 1686.40625 75.839844 C 1687.636719 83.503906 1682.398438 90.929688 1673.308594 94.417969 L 1614.371094 117.050781 C 1614.371094 117.050781 1636.199219 54.054688 1606.054688 44.605469 C 1575.910156 35.15625 1576.953125 37.515625 1576.953125 37.515625 C 1576.953125 37.515625 1553.042969 76.886719 1584.226562 94.210938 L 1558.246094 106.816406 C 1558.246094 106.816406 1540.574219 32.796875 1572.796875 18.621094 C 1605.019531 4.449219 1597.742188 -5.789062 1631.003906 3.660156 Z M 1631.003906 3.65625 "/>
<path style=" stroke:none;fill-rule:nonzero;fill:rgb(42.352942%,38.82353%,100%);fill-opacity:1;" d="M 1234.195312 220.347656 C 1215.960938 221.316406 1202.214844 233.296875 1203.496094 247.109375 C 1204.773438 260.921875 1220.589844 271.335938 1238.824219 270.367188 C 1257.054688 269.398438 1270.800781 257.417969 1269.519531 243.605469 C 1268.242188 229.792969 1252.425781 219.378906 1234.195312 220.347656 Z M 1237.28125 253.695312 C 1231.203125 254.015625 1225.933594 250.546875 1225.507812 245.941406 C 1225.082031 241.339844 1229.660156 237.34375 1235.738281 237.023438 C 1241.816406 236.699219 1247.085938 240.167969 1247.511719 244.773438 C 1247.941406 249.375 1243.359375 253.371094 1237.28125 253.695312 Z M 1237.28125 253.695312 "/>
<path style=" stroke:none;fill-rule:nonzero;fill:rgb(42.352942%,38.82353%,100%);fill-opacity:1;" d="M 1156.734375 200.914062 C 1156.945312 198.539062 1158.375 196.320312 1160.71875 194.730469 L 1175.15625 184.160156 C 1177.464844 182.585938 1180.519531 181.789062 1183.617188 181.953125 C 1186.714844 182.117188 1189.59375 183.226562 1191.59375 185.027344 L 1234.765625 223.523438 C 1238.976562 227.3125 1238.457031 232.953125 1233.59375 236.265625 C 1231.28125 237.835938 1228.230469 238.632812 1225.132812 238.46875 C 1222.03125 238.304688 1219.15625 237.199219 1217.15625 235.398438 L 1185.855469 201.675781 L 1175.984375 208.339844 C 1172.464844 210.738281 1167.359375 211.246094 1163.136719 209.625 C 1158.890625 207.957031 1156.371094 204.527344 1156.734375 200.914062 Z M 1156.734375 200.914062 "/>
<path style=" stroke:none;fill-rule:nonzero;fill:rgb(42.352942%,38.82353%,100%);fill-opacity:1;" d="M 1203.480469 204.53125 C 1201.011719 204.660156 1198.707031 205.523438 1197.070312 206.929688 L 1184.023438 218.175781 C 1180.769531 221.097656 1181.238281 225.460938 1185.074219 227.949219 C 1188.929688 230.445312 1194.703125 230.191406 1198.148438 227.371094 L 1211.199219 216.128906 C 1213.679688 214 1214.203125 210.9375 1212.519531 208.398438 C 1210.8125 205.847656 1207.246094 204.320312 1203.480469 204.53125 Z M 1203.480469 204.53125 "/>
<path style=" stroke:none;fill-rule:nonzero;fill:rgb(42.352942%,38.82353%,100%);fill-opacity:1;" d="M 1050.6875 565.671875 C 1050.6875 527.5 1009.84375 496.554688 959.457031 496.554688 C 909.066406 496.554688 868.222656 527.5 868.222656 565.671875 C 868.222656 603.84375 909.066406 634.789062 959.457031 634.789062 C 1009.84375 634.789062 1050.6875 603.84375 1050.6875 565.671875 Z M 1050.6875 565.671875 "/>
<path style=" stroke:none;fill-rule:nonzero;fill:rgb(100%,100%,100%);fill-opacity:1;" d="M 959.5 541.714844 C 967.453125 541.714844 973.898438 546.597656 973.898438 552.625 L 973.898438 579.910156 C 973.898438 585.9375 967.453125 590.820312 959.5 590.820312 C 951.546875 590.820312 945.097656 585.9375 945.097656 579.910156 L 945.097656 552.625 C 945.097656 546.597656 951.546875 541.714844 959.5 541.714844 Z M 959.5 541.714844 "/>
</g>
</svg>
